<?xml version="1.0" encoding="utf-8"?>
<!-- Generator: Adobe Illustrator 16.0.0, SVG Export Plug-In . SVG Version: 6.00 Build 0)  -->
<!DOCTYPE svg PUBLIC "-//W3C//DTD SVG 1.1//EN" "http://www.w3.org/Graphics/SVG/1.1/DTD/svg11.dtd">
<svg version="1.1" id="Layer_1" xmlns="http://www.w3.org/2000/svg" xmlns:xlink="http://www.w3.org/1999/xlink" x="0px" y="0px"
	 width="252.698px" height="278.676px" viewBox="110.188 114.633 252.698 278.676"
	 enable-background="new 110.188 114.633 252.698 278.676" xml:space="preserve">
<path fill="#FFFFFF" stroke="#000000" stroke-miterlimit="10" d="M411.564,551.896"/>
<g>
	<path d="M354.075,314.675c-4.382,7.812-7.904,15.171-12.38,21.896c-28.598,42.976-81.347,64.774-130.089,54.021
		c-52.988-11.689-91.729-51.75-99.901-104.071c-1.589-10.17-1.482-20.663-1.518-31.008c-0.149-45.206-0.066-90.413-0.056-135.62
		c0.002-1.324,0.154-2.647,0.313-5.259c15.804,18.604,30.853,36.323,45.666,53.762c53.386-37.331,106.432-37.46,160.208-0.405
		c14.928-17.182,30.104-34.648,46.212-53.189c0.17,2.646,0.337,4.033,0.337,5.421c0.016,45.052,0.029,90.104,0.004,135.155
		c-0.009,13.77,0.036,27.546-3.484,41.033c-0.648,2.475-1.378,4.034-4.497,4.008c-18.732-0.153-37.466-0.088-56.199-0.123
		c-0.891,0-1.779-0.239-3.253-0.453c0-1.922,0-3.732,0-5.545c0-21.83-0.002-43.659,0-65.487c0.002-6.587,0.005-6.604,6.498-6.548
		c1.654,0.015,3.31,0.169,5.467,0.286c0,22.161,0,43.906,0,66.132c13.643,0,26.759,0.07,39.872-0.15
		c0.93-0.016,2.475-2.102,2.624-3.357c0.771-6.442,1.624-12.928,1.646-19.403c0.133-38.853,0.044-77.707,0.03-116.56
		c-0.002-1.03,0-2.059,0-4.152c-12.063,13.52-23.415,26.237-34.778,38.973c-43.585-41.985-116.178-43.588-161.421,0.645
		c-10.981-12.757-21.943-25.49-33.39-38.788c-0.196,1.732-0.435,2.845-0.435,3.959c-0.015,39.632-0.205,79.265,0.047,118.895
		c0.369,57.731,45.391,106.676,102.862,112.221c47.606,4.592,91.724-18.795,113.638-60.715c2.593-4.959,5.443-6.938,10.677-6.058
		C350.086,314.408,351.429,314.439,354.075,314.675z"/>
	<path d="M261.463,266.813c0,3.877,0.104,7.716-0.019,11.546c-0.354,10.975-5.712,17.859-16.273,21
		c-6.986,2.078-14.068,2.254-21.072,0.321c-9.165-2.53-15.812-8.015-17.661-17.696c-1.827-9.57,2.163-16.837,10.429-21.799
		c-7.483-8.129-9.469-17.225-5.293-25.517c5.074-10.075,14.159-13.419,24.671-13.328c10.938,0.094,18.44,5.824,22.233,16.568
		c-2.863,0.932-5.684,2.08-8.615,2.662c-0.879,0.174-2.463-0.993-3.056-1.955c-4.647-7.533-17-6.591-22.01-2.198
		c-3.526,3.091-4.346,6.97-2.943,11.375c1.482,4.656,5.015,6.579,9.553,6.634c10.983,0.133,21.972,0.001,32.956,0.148
		c1.601,0.022,4.483,0.851,4.561,1.548c0.343,3.132,0.438,6.547-0.581,9.434C267.982,266.574,264.186,266.376,261.463,266.813z
		 M249.637,266.313c-5.897,0-11.15-0.024-16.402,0.015c-1.697,0.012-3.418,0.053-5.093,0.31c-4.791,0.737-8.458,3.054-9.866,7.938
		c-1.297,4.49,0.111,8.237,3.704,11.16c5.541,4.51,17.664,5.221,23.24,0.878c2.003-1.562,3.823-4.312,4.228-6.765
		C250.135,275.664,249.637,271.283,249.637,266.313z"/>
	<path d="M135.715,300.352c0-4.248,0-7.743,0-11.513c4.112-0.598,8.265-0.914,12.277-1.84c13.874-3.207,19.13-9.978,19.13-24.199
		c0-9.405,0-18.811,0-28.694c-7.064,0-13.656,0-19.932,0c-0.485-0.736-0.772-0.979-0.807-1.253
		c-1.354-10.604-1.35-10.605,9.072-10.605c6.503,0.001,13.008,0.098,19.51-0.037c2.84-0.059,4.199,0.623,4.166,3.846
		c-0.146,13.934,0.188,27.875-0.144,41.803c-0.392,16.368-11.713,27.875-30.208,31.149
		C144.592,299.75,140.299,299.897,135.715,300.352z"/>
</g>
</svg>
